<?xml version="1.0" encoding="UTF-8" standalone="no"?>
<!-- Created with Inkscape (http://www.inkscape.org/) -->

<svg
   width="103.76731mm"
   height="103.76731mm"
   viewBox="0 0 103.76731 103.76731"
   version="1.1"
   id="svg5"
   inkscape:version="1.1.2 (0a00cf5339, 2022-02-04)"
   sodipodi:docname="neon-mask.svg"
   xmlns:inkscape="http://www.inkscape.org/namespaces/inkscape"
   xmlns:sodipodi="http://sodipodi.sourceforge.net/DTD/sodipodi-0.dtd"
   xmlns:xlink="http://www.w3.org/1999/xlink"
   xmlns="http://www.w3.org/2000/svg"
   xmlns:svg="http://www.w3.org/2000/svg">
  <sodipodi:namedview
     id="namedview7"
     pagecolor="#ffffff"
     bordercolor="#666666"
     borderopacity="1.0"
     inkscape:pageshadow="2"
     inkscape:pageopacity="0.0"
     inkscape:pagecheckerboard="0"
     inkscape:document-units="mm"
     showgrid="false"
     inkscape:snap-bbox="true"
     inkscape:snap-bbox-edge-midpoints="false"
     inkscape:snap-bbox-midpoints="true"
     inkscape:zoom="1.4211372"
     inkscape:cx="269.8543"
     inkscape:cy="228.33826"
     inkscape:window-width="1916"
     inkscape:window-height="1018"
     inkscape:window-x="0"
     inkscape:window-y="32"
     inkscape:window-maximized="1"
     inkscape:current-layer="layer1"
     fit-margin-top="0"
     fit-margin-left="0"
     fit-margin-right="0"
     fit-margin-bottom="0"
     inkscape:snap-global="true" />
  <defs
     id="defs2">
    <linearGradient
       inkscape:collect="always"
       id="linearGradient2762">
      <stop
         style="stop-color:#ffeb3b;stop-opacity:1"
         offset="0"
         id="stop2758" />
      <stop
         style="stop-color:#ff00e0;stop-opacity:1"
         offset="0.5"
         id="stop3086" />
      <stop
         style="stop-color:#14ffe9;stop-opacity:1"
         offset="1"
         id="stop2760" />
    </linearGradient>
    <filter
       inkscape:collect="always"
       style="color-interpolation-filters:sRGB"
       id="filter3448"
       x="-0.18262004"
       y="-0.18262004"
       width="1.3652401"
       height="1.3652401">
      <feGaussianBlur
         inkscape:collect="always"
         stdDeviation="3.9718665"
         id="feGaussianBlur3450" />
    </filter>
    <linearGradient
       inkscape:collect="always"
       xlink:href="#linearGradient2762"
       id="linearGradient3452"
       x1="63.984375"
       y1="137.91922"
       x2="146.80444"
       y2="137.91922"
       gradientUnits="userSpaceOnUse" />
    <linearGradient
       inkscape:collect="always"
       xlink:href="#linearGradient2762"
       id="linearGradient3799"
       gradientUnits="userSpaceOnUse"
       gradientTransform="matrix(0.25207994,0,0,0.25207994,55.962635,88.48743)"
       x1="0"
       y1="196.09571"
       x2="392.19141"
       y2="196.09571" />
    <linearGradient
       inkscape:collect="always"
       xlink:href="#linearGradient2762"
       id="linearGradient6594"
       gradientUnits="userSpaceOnUse"
       gradientTransform="matrix(0.25207994,0,0,0.25207994,55.962634,88.487429)"
       x1="0"
       y1="196.09571"
       x2="392.19141"
       y2="196.09571" />
    <filter
       inkscape:collect="always"
       style="color-interpolation-filters:sRGB"
       id="filter6597"
       x="-0.016222578"
       y="-0.016222577"
       width="1.0324452"
       height="1.0324452">
      <feGaussianBlur
         inkscape:collect="always"
         stdDeviation="0.61903458"
         id="feGaussianBlur6599" />
    </filter>
    <filter
       inkscape:collect="always"
       style="color-interpolation-filters:sRGB"
       id="filter6597-6"
       x="-0.016222578"
       y="-0.016222576"
       width="1.0324452"
       height="1.0324452">
      <feGaussianBlur
         inkscape:collect="always"
         stdDeviation="0.61903458"
         id="feGaussianBlur6599-0" />
    </filter>
    <linearGradient
       inkscape:collect="always"
       xlink:href="#linearGradient2762"
       id="linearGradient6645"
       gradientUnits="userSpaceOnUse"
       gradientTransform="matrix(0.25207994,0,0,0.25207994,55.96264,88.76631)"
       x1="0"
       y1="196.09571"
       x2="392.19141"
       y2="196.09571" />
    <filter
       inkscape:collect="always"
       style="color-interpolation-filters:sRGB"
       id="filter6597-6-8"
       x="-0.025048409"
       y="-0.025048407"
       width="1.0500968"
       height="1.0500968">
      <feGaussianBlur
         inkscape:collect="always"
         stdDeviation="0.95581793"
         id="feGaussianBlur6599-0-7" />
    </filter>
    <linearGradient
       inkscape:collect="always"
       xlink:href="#linearGradient2762"
       id="linearGradient6692"
       gradientUnits="userSpaceOnUse"
       gradientTransform="matrix(0.25207994,0,0,0.25207994,55.962643,88.208563)"
       x1="0"
       y1="196.09571"
       x2="392.19141"
       y2="196.09571" />
  </defs>
  <g
     inkscape:label="Layer 1"
     inkscape:groupmode="layer"
     id="layer1"
     transform="translate(-53.510773,-86.035568)">
    <path
       id="path1099"
       style="fill:url(#linearGradient3799);fill-opacity:1;stroke:none;stroke-width:0.727998;stroke-opacity:1"
       d="m 105.39443,92.128624 a 45.790263,45.790263 0 0 0 -45.790601,45.790596 45.790263,45.790263 0 0 0 45.790601,45.7906 45.790263,45.790263 0 0 0 45.79059,-45.7906 45.790263,45.790263 0 0 0 -45.79059,-45.790596 z m 0,0.278876 a 45.511817,45.511817 0 0 1 45.51172,45.51172 45.511817,45.511817 0 0 1 -45.51172,45.51172 A 45.511817,45.511817 0 0 1 59.882705,137.91922 45.511817,45.511817 0 0 1 105.39443,92.4075 Z" />
    <circle
       style="mix-blend-mode:normal;fill:url(#linearGradient3452);fill-opacity:1;stroke:none;stroke-width:0.396875;stroke-opacity:1;filter:url(#filter3448)"
       id="path3358"
       cx="105.39442"
       cy="137.91922"
       r="26.099216"
       transform="matrix(1.4304947,0,0,1.4304947,-45.371732,-59.373485)" />
    <path
       id="path1099-7"
       style="fill:url(#linearGradient6594);fill-opacity:1;stroke:none;stroke-width:0.727998;stroke-opacity:1;filter:url(#filter6597)"
       d="m 105.39443,92.128623 a 45.790263,45.790263 0 0 0 -45.790602,45.790597 45.790263,45.790263 0 0 0 45.790602,45.7906 45.790263,45.790263 0 0 0 45.79059,-45.7906 45.790263,45.790263 0 0 0 -45.79059,-45.790597 z m 0,0.278876 a 45.511817,45.511817 0 0 1 45.51172,45.511721 45.511817,45.511817 0 0 1 -45.51172,45.51172 45.511817,45.511817 0 0 1 -45.511726,-45.51172 45.511817,45.511817 0 0 1 45.511726,-45.511721 z" />
    <path
       id="path1099-7-6"
       style="fill:url(#linearGradient6645);fill-opacity:1;stroke:none;stroke-width:0.727998;stroke-opacity:1;filter:url(#filter6597-6)"
       d="m 105.39443,92.4075 a 45.790263,45.790263 0 0 0 -45.7906,45.7906 45.790263,45.790263 0 0 0 45.7906,45.7906 45.790263,45.790263 0 0 0 45.79059,-45.7906 45.790263,45.790263 0 0 0 -45.79059,-45.7906 z m 0,0.27888 a 45.511817,45.511817 0 0 1 45.51172,45.51172 45.511817,45.511817 0 0 1 -45.51172,45.51172 45.511817,45.511817 0 0 1 -45.51172,-45.51172 45.511817,45.511817 0 0 1 45.51172,-45.51172 z" />
    <path
       id="path1099-7-6-9"
       style="fill:url(#linearGradient6692);fill-opacity:1;stroke:none;stroke-width:0.727998;stroke-opacity:1;filter:url(#filter6597-6-8)"
       d="m 105.39443,91.849743 a 45.790263,45.790263 0 0 0 -45.790597,45.790597 45.790263,45.790263 0 0 0 45.790597,45.7906 45.790263,45.790263 0 0 0 45.79059,-45.7906 45.790263,45.790263 0 0 0 -45.79059,-45.790597 z m 0,0.27888 a 45.511817,45.511817 0 0 1 45.51172,45.511717 45.511817,45.511817 0 0 1 -45.51172,45.51172 45.511817,45.511817 0 0 1 -45.511717,-45.51172 45.511817,45.511817 0 0 1 45.511717,-45.511717 z" />
  </g>
</svg>
